<svg width="40" height="40" viewBox="0 0 40 40" fill="none" xmlns="http://www.w3.org/2000/svg">
<path d="M21.9967 34H14.2088L14.0338 33.9946H13.8544L13.675 33.9881L13.4988 33.9741L13.3227 33.9655L13.1433 33.9515L12.9683 33.9353L12.7922 33.917L12.6161 33.8975L12.441 33.8738L12.2671 33.849L12.0921 33.8231L11.9182 33.794L11.741 33.7573L11.5649 33.7239L11.3954 33.6894L11.2226 33.6538L11.0498 33.615L10.8804 33.5729L10.7065 33.5309L10.537 33.4856L10.3675 33.4403L10.2025 33.3918L10.033 33.34L9.86688 33.2871L9.70074 33.2332L9.5357 33.175L9.36955 33.1167L9.20673 33.0542L9.04501 33.0024L8.88219 32.9377L8.71936 32.8741L8.55986 32.8061L8.40036 32.7339L8.24086 32.6573L8.08579 32.5829L7.92961 32.5063L7.77454 32.4276L7.61283 32.3553L7.45887 32.2723L7.31044 32.186L7.15759 32.1019L7.00363 32.0146L6.85299 31.924L6.70235 31.8334L6.55281 31.7428L6.40771 31.6457L6.2615 31.5519L6.1153 31.4516L5.97241 31.3502L5.82952 31.2499L5.68553 31.1421L5.54597 31.0342L5.4064 30.9264L5.27127 30.8185L5.13503 30.7107L4.99879 30.6029L4.86587 30.4896L4.73296 30.3764L4.60004 30.2567L4.47045 30.1402L4.34417 30.0173L4.20904 29.8986L4.0872 29.767L3.96425 29.6441L3.84463 29.5147L3.72168 29.3885L3.60538 29.2591L3.48575 29.1286L3.37499 28.997L3.26422 28.8644L3.15346 28.7285L3.04269 28.5958L2.93193 28.4567L2.82117 28.3208L2.7104 28.1817L2.61071 28.0415L2.5066 27.8992L2.41134 27.7579L2.31165 27.6155L2.21861 27.4699L2.12446 27.3243L2.04028 27.1788L1.95388 27.0299L1.86416 26.8843L1.77887 26.7323L1.69469 26.5834L1.61494 26.4314L1.53519 26.2793L1.45544 26.1283L1.38012 25.973L1.30591 25.8177L1.23281 25.6689L1.16302 25.5071L1.09657 25.3529L1.03122 25.1933L0.966972 25.0348L0.903836 24.873L0.844024 24.7145L0.784211 24.5527L0.727721 24.3909L0.674554 24.2302L0.621388 24.0652L0.571544 23.9035L0.525023 23.7385L0.478502 23.5702L0.435304 23.4042L0.392106 23.2391L0.35223 23.0709L0.315678 22.9016L0.279126 22.7355L0.245897 22.5673L0.221529 22.3979L0.191622 22.2297L0.165039 22.0582L0.134025 21.8943L0.110764 21.7185L0.0908267 21.5481L0.0697815 21.3767L0.0542745 21.2041L0.0398751 21.0315L0.0265834 20.859L0.0166146 20.6875L0.00996878 20.5128L0 20.3381V20.1688V19.8334V19.6619L0.00664586 19.4872L0.0166146 19.306L0.0265834 19.1345L0.0398751 18.9641L0.0531669 18.7894L0.0697815 18.618L0.0897191 18.4432L0.110764 18.2772L0.134025 18.1057L0.158393 17.9374L0.183869 17.766L0.213775 17.5977L0.248112 17.4284L0.281341 17.2602L0.317893 17.0919L0.353338 16.9226L0.393213 16.7544L0.433088 16.5894L0.479609 16.4244L0.522807 16.2561L0.572651 16.0911L0.622495 15.9294L0.67677 15.7644L0.729937 15.6037L0.786426 15.4419L0.846239 15.2801L0.906052 15.1216L0.965864 14.9598L1.03122 14.8013L1.09546 14.6417L1.16524 14.4875L1.23502 14.3278L1.30813 14.1726L1.38123 14.0173L1.45766 13.862L1.53409 13.711L1.61384 13.5589L1.69691 13.4068L1.77998 13.258L1.86638 13.106L1.95277 12.9604L2.04249 12.8115L2.13554 12.6659L2.22858 12.5204L2.32273 12.3748L2.41798 12.2324L2.51767 12.0911L2.61736 11.9488L2.72148 11.8086L2.83224 11.6695L2.93636 11.5336L3.04713 11.3944L3.15789 11.2618L3.26865 11.1259L3.37942 10.9933L3.49018 10.8617L3.60095 10.7312L3.72057 10.6018L3.8402 10.4756L3.96425 10.3462L4.0872 10.2232L4.21347 10.0971L4.33864 9.97735L4.46823 9.85441L4.59783 9.73793L4.73185 9.61823L4.86477 9.50499L4.99768 9.39175L5.13392 9.2839L5.27016 9.17606L5.4053 9.06821L5.54486 8.96037L5.68442 8.85252L5.82842 8.74467L5.9713 8.64438L6.11419 8.543L6.2604 8.44271L6.40661 8.34888L6.55171 8.25182L6.69792 8.16123L6.85077 8.07064L7.0003 7.97897L7.14983 7.89161L7.3038 7.80749L7.45665 7.72661L7.61283 7.64357L7.7679 7.56592L7.92408 7.48719L8.08579 7.41278L8.24086 7.33513L8.40036 7.26395L8.55986 7.1917L8.71936 7.12375L8.88219 7.06012L9.04501 6.99542L9.20894 6.93394L9.37177 6.87139L9.53791 6.81316L9.70295 6.75492L9.8691 6.701L10.0352 6.64815L10.2047 6.59639L10.3698 6.54786L10.5392 6.50256L10.7087 6.45727L10.8826 6.41521L11.0521 6.37315L11.2249 6.33432L11.3943 6.29873L11.5671 6.26422L11.741 6.2351L11.916 6.20599L12.0899 6.17687L12.2649 6.15098L12.4388 6.12618L12.6138 6.10245L12.79 6.08304L12.9661 6.06471L13.1411 6.04853L13.3172 6.03451L13.4966 6.02588L13.6727 6.01186L13.8522 6.00539H14.0272L14.2066 6H14.5533L16.7121 8.10191H14.3994H14.2399H14.0903L13.9375 8.10838L13.7835 8.11486L13.634 8.12133L13.4844 8.12995L13.3316 8.14397L13.1821 8.15692L13.0325 8.17309L12.883 8.18927L12.7335 8.20868L12.5839 8.23133L12.4377 8.25398L12.2882 8.2777L12.1431 8.30251L11.9969 8.33163L11.8507 8.36074L11.7056 8.38986L11.5594 8.42329L11.4132 8.4578L11.2681 8.49339L11.1241 8.53222L10.9812 8.57428L10.8383 8.6131L10.6943 8.6584L10.5514 8.70046L10.4085 8.74899L10.269 8.79752L10.125 8.84497L9.9854 8.89782L9.84584 8.94958L9.7096 9.0035L9.57003 9.06066L9.43379 9.1189L9.29866 9.17714L9.16464 9.23861L9.0295 9.30008L8.89548 9.36479L8.76256 9.43273L8.62964 9.50067L8.49562 9.56862L8.36603 9.63979L8.23643 9.71097L8.10684 9.78539L7.98167 9.86304L7.8554 9.93745L7.72913 10.0183L7.60397 10.0992L7.47991 10.1812L7.35696 10.2621L7.23401 10.3494L7.11439 10.4335L6.99033 10.5209L6.87957 10.6115L6.75994 10.7032L6.64364 10.7959L6.52734 10.8865L6.41657 10.9846L6.30581 11.0817L6.19505 11.1788L6.08428 11.279L5.97352 11.3793L5.86275 11.4872L5.75199 11.595L5.64122 11.7029L5.53046 11.8107L5.42634 11.9186L5.32333 12.0264L5.22364 12.1343L5.12396 12.2421L5.02427 12.3554L4.9279 12.4632L4.83486 12.5764L4.74182 12.6929L4.64767 12.8094L4.55795 12.9259L4.46823 13.0423L4.38294 13.1588L4.29655 13.2796L4.21347 13.3993L4.12929 13.5222L4.04954 13.6452L3.96979 13.7671L3.89447 13.8932L3.81804 14.0194L3.74494 14.1424L3.67073 14.2718L3.59762 14.398L3.53117 14.5274L3.46138 14.6579L3.39603 14.7873L3.33179 14.9199L3.26865 15.0493L3.20552 15.182L3.14681 15.3157L3.09032 15.4473L3.03383 15.5799L2.98067 15.7158L2.9275 15.8517L2.87323 15.9876L2.82338 16.1278L2.77797 16.2637L2.73145 16.4028L2.68825 16.5419L2.64394 16.681L2.60407 16.8212L2.56419 16.9636L2.52875 17.1027L2.4922 17.2451L2.45897 17.3864L2.42463 17.5287L2.39472 17.6711L2.36925 17.8123L2.34266 17.9579L2.31608 18.1003L2.29282 18.2459L2.27288 18.3882L2.25295 18.5328L2.23633 18.6794L2.21529 18.8304L2.20089 18.976L2.18759 19.1216L2.17763 19.2672L2.16766 19.416L2.16101 19.5616V19.7104V19.856V20.1375V20.2874L2.16766 20.4362L2.1732 20.5818L2.17984 20.7307L2.18981 20.8762L2.20421 21.0218L2.21529 21.1685L2.2319 21.3141L2.24741 21.4608L2.26734 21.6053L2.28728 21.7476L2.31054 21.8932L2.33713 22.0356L2.36371 22.1812L2.39029 22.3225L2.42352 22.4648L2.45343 22.6072L2.48666 22.7484L2.52321 22.8908L2.55976 23.0299L2.59964 23.1723L2.63841 23.3125L2.68271 23.4516L2.72591 23.5907L2.77243 23.7298L2.82227 23.8657L2.87212 24.0059L2.92196 24.1418L2.97513 24.2777L3.0283 24.4136L3.08479 24.5462L3.1446 24.6778L3.20441 24.8137L3.26422 24.9463L3.32847 25.0758L3.3916 25.2084L3.45806 25.3378L3.52673 25.4683L3.59652 25.5977L3.66741 25.7239L3.74051 25.8533L3.81361 25.9763L3.89447 26.1003L3.9709 26.2265L4.05065 26.3483L4.13372 26.4713L4.21347 26.591L4.29987 26.7139L4.38294 26.8347L4.47266 26.9544L4.55906 27.0709L4.64767 27.1874L4.74182 27.3039L4.83486 27.4203L4.92901 27.5336L5.0287 27.6414L5.12396 27.7493L5.22364 27.8571L5.32333 27.9649L5.42634 28.0728L5.53046 28.1806L5.64122 28.2885L5.75199 28.3963L5.86275 28.5042L5.97352 28.612L6.08428 28.7123L6.19505 28.8126L6.30581 28.9097L6.41657 29.0067L6.53288 29.1049L6.64364 29.1955L6.75994 29.2882L6.87957 29.3799L6.99919 29.4705L7.11882 29.5578L7.23845 29.642L7.36139 29.7293L7.48545 29.8102L7.6084 29.8922L7.73356 29.973L7.85983 30.0539L7.9861 30.1283L8.1157 30.206L8.24529 30.2804L8.37046 30.3516L8.50448 30.4228L8.63408 30.4907L8.76699 30.5586L8.89991 30.6266L9.03393 30.6913L9.16907 30.7528L9.30309 30.8142L9.43822 30.8725L9.57889 30.9307L9.71403 30.99L9.85027 31.0439L9.98983 31.0957L10.1294 31.1486L10.269 31.1971L10.4118 31.2456L10.5514 31.2909L10.6943 31.3351L10.8383 31.3804L10.9812 31.4192L11.1241 31.4613L11.2703 31.5001L11.4132 31.5357L11.5594 31.5702L11.7056 31.6037L11.8507 31.6328L11.9969 31.6619L12.1431 31.691L12.2882 31.7158L12.4377 31.7396L12.5873 31.7622L12.7335 31.7848L12.883 31.8043L13.0325 31.8204L13.1821 31.8366L13.3316 31.8496L13.4844 31.8636L13.634 31.8722L13.7879 31.8787L13.9375 31.8851L14.0903 31.8916H14.2399H14.3994H16.6589L13.2618 28.584H16.4463L22 33.9925L21.9967 34Z" fill="black" fill-opacity="0.16"/>
<path d="M18.0033 6L25.7912 6L25.9662 6.00539H26.1456L26.325 6.01187L26.5012 6.02589L26.6773 6.03451L26.8567 6.04853L27.0317 6.06471L27.2078 6.08304L27.3839 6.10246L27.559 6.12618L27.7329 6.15098L27.9079 6.17687L28.0818 6.20599L28.259 6.24266L28.4351 6.27609L28.6046 6.3106L28.7774 6.34619L28.9502 6.38501L29.1196 6.42707L29.2935 6.46913L29.463 6.51443L29.6325 6.55972L29.7975 6.60825L29.967 6.66002L30.1331 6.71286L30.2993 6.76679L30.4643 6.82502L30.6305 6.88326L30.7933 6.94581L30.955 6.99757L31.1178 7.06228L31.2806 7.12591L31.4401 7.19386L31.5996 7.26611L31.7591 7.34268L31.9142 7.41709L32.0704 7.49367L32.2255 7.57239L32.3872 7.64465L32.5411 7.72769L32.6896 7.81397L32.8424 7.89809L32.9964 7.98544L33.147 8.07603L33.2977 8.16662L33.4472 8.25722L33.5923 8.35428L33.7385 8.4481L33.8847 8.5484L34.0276 8.64977L34.1705 8.75007L34.3145 8.85792L34.454 8.96576L34.5936 9.07361L34.7287 9.18145L34.865 9.2893L35.0012 9.39714L35.1341 9.51038L35.267 9.62362L35.4 9.74333L35.5296 9.8598L35.6558 9.98275L35.791 10.1014L35.9128 10.233L36.0357 10.3559L36.1554 10.4853L36.2783 10.6115L36.3946 10.7409L36.5142 10.8714L36.625 11.003L36.7358 11.1356L36.8465 11.2715L36.9573 11.4042L37.0681 11.5433L37.1788 11.6792L37.2896 11.8183L37.3893 11.9585L37.4934 12.1008L37.5887 12.2421L37.6883 12.3845L37.7814 12.5301L37.8755 12.6757L37.9597 12.8212L38.0461 12.9701L38.1358 13.1157L38.2211 13.2677L38.3053 13.4166L38.3851 13.5686L38.4648 13.7207L38.5446 13.8717L38.6199 14.027L38.6941 14.1823L38.7672 14.3311L38.837 14.4929L38.9034 14.6471L38.9688 14.8067L39.033 14.9652L39.0962 15.127L39.156 15.2855L39.2158 15.4473L39.2723 15.6091L39.3254 15.7698L39.3786 15.9348L39.4285 16.0965L39.475 16.2615L39.5215 16.4298L39.5647 16.5958L39.6079 16.7609L39.6478 16.9291L39.6843 17.0984L39.7209 17.2645L39.7541 17.4327L39.7785 17.6021L39.8084 17.7703L39.835 17.9418L39.866 18.1057L39.8892 18.2815L39.9092 18.4519L39.9302 18.6233L39.9457 18.7959L39.9601 18.9685L39.9734 19.141L39.9834 19.3125L39.99 19.4872L40 19.6619V19.8312V20.1666V20.3381L39.9934 20.5128L39.9834 20.694L39.9734 20.8655L39.9601 21.0359L39.9468 21.2106L39.9302 21.382L39.9103 21.5568L39.8892 21.7228L39.866 21.8943L39.8416 22.0626L39.8161 22.234L39.7862 22.4023L39.7519 22.5716L39.7187 22.7398L39.6821 22.9081L39.6467 23.0774L39.6068 23.2456L39.5669 23.4106L39.5204 23.5756L39.4772 23.7439L39.4273 23.9089L39.3775 24.0706L39.3232 24.2356L39.2701 24.3963L39.2136 24.5581L39.1538 24.7199L39.0939 24.8784L39.0341 25.0402L38.9688 25.1987L38.9045 25.3583L38.8348 25.5125L38.765 25.6722L38.6919 25.8274L38.6188 25.9827L38.5423 26.138L38.4659 26.289L38.3862 26.4411L38.3031 26.5932L38.22 26.742L38.1336 26.894L38.0472 27.0396L37.9575 27.1885L37.8645 27.3341L37.7714 27.4796L37.6773 27.6252L37.582 27.7676L37.4823 27.9089L37.3826 28.0512L37.2785 28.1914L37.1678 28.3305L37.0636 28.4664L36.9529 28.6056L36.8421 28.7382L36.7313 28.8741L36.6206 29.0067L36.5098 29.1383L36.3991 29.2688L36.2794 29.3982L36.1598 29.5244L36.0357 29.6538L35.9128 29.7768L35.7865 29.9029L35.6614 30.0226L35.5318 30.1456L35.4022 30.2621L35.2682 30.3818L35.1352 30.495L35.0023 30.6083L34.8661 30.7161L34.7298 30.8239L34.5947 30.9318L34.4551 31.0396L34.3156 31.1475L34.1716 31.2553L34.0287 31.3556L33.8858 31.457L33.7396 31.5573L33.5934 31.6511L33.4483 31.7482L33.3021 31.8388L33.1492 31.9294L32.9997 32.021L32.8502 32.1084L32.6962 32.1925L32.5433 32.2734L32.3872 32.3564L32.2321 32.4341L32.0759 32.5128L31.9142 32.5872L31.7591 32.6649L31.5996 32.736L31.4401 32.8083L31.2806 32.8762L31.1178 32.9399L30.955 33.0046L30.7911 33.0661L30.6282 33.1286L30.4621 33.1868L30.297 33.2451L30.1309 33.299L29.9648 33.3518L29.7953 33.4036L29.6302 33.4521L29.4608 33.4974L29.2913 33.5427L29.1174 33.5848L28.9479 33.6269L28.7751 33.6657L28.6057 33.7013L28.4329 33.7358L28.259 33.7649L28.084 33.794L27.9101 33.8231L27.7351 33.849L27.5612 33.8738L27.3862 33.8975L27.21 33.917L27.0339 33.9353L26.8589 33.9515L26.6828 33.9655L26.5034 33.9741L26.3273 33.9881L26.1478 33.9946H25.9728L25.7934 34H25.4467L23.2879 31.8981L25.6006 31.8981H25.7601H25.9097L26.0625 31.8916L26.2165 31.8851L26.366 31.8787L26.5156 31.87L26.6684 31.856L26.8179 31.8431L26.9675 31.8269L27.117 31.8107L27.2665 31.7913L27.4161 31.7687L27.5623 31.746L27.7118 31.7223L27.8569 31.6975L28.0031 31.6684L28.1493 31.6393L28.2944 31.6101L28.4406 31.5767L28.5868 31.5422L28.7319 31.5066L28.8759 31.4678L29.0188 31.4257L29.1617 31.3869L29.3057 31.3416L29.4486 31.2995L29.5915 31.251L29.731 31.2025L29.875 31.155L30.0146 31.1022L30.1542 31.0504L30.2904 30.9965L30.43 30.9393L30.5662 30.8811L30.7013 30.8229L30.8354 30.7614L30.9705 30.6999L31.1045 30.6352L31.2374 30.5673L31.3704 30.4993L31.5044 30.4314L31.634 30.3602L31.7636 30.289L31.8932 30.2146L32.0183 30.137L32.1446 30.0626L32.2709 29.9817L32.396 29.9008L32.5201 29.8188L32.643 29.7379L32.766 29.6506L32.8856 29.5665L33.0097 29.4791L33.1204 29.3885L33.2401 29.2968L33.3564 29.2041L33.4727 29.1135L33.5834 29.0154L33.6942 28.9183L33.805 28.8212L33.9157 28.721L34.0265 28.6207L34.1372 28.5128L34.248 28.405L34.3588 28.2971L34.4695 28.1893L34.5737 28.0814L34.6767 27.9736L34.7764 27.8657L34.876 27.7579L34.9757 27.6446L35.0721 27.5368L35.1651 27.4236L35.2582 27.3071L35.3523 27.1906L35.4421 27.0741L35.5318 26.9577L35.6171 26.8412L35.7035 26.7204L35.7865 26.6007L35.8707 26.4778L35.9505 26.3548L36.0302 26.2329L36.1055 26.1068L36.182 25.9806L36.2551 25.8576L36.3293 25.7282L36.4024 25.602L36.4688 25.4726L36.5386 25.3421L36.604 25.2127L36.6682 25.0801L36.7313 24.9507L36.7945 24.818L36.8532 24.6843L36.9097 24.5527L36.9662 24.4201L37.0193 24.2842L37.0725 24.1483L37.1268 24.0124L37.1766 23.8722L37.222 23.7363L37.2686 23.5972L37.3118 23.4581L37.3561 23.319L37.3959 23.1788L37.4358 23.0364L37.4713 22.8973L37.5078 22.7549L37.541 22.6136L37.5754 22.4713L37.6053 22.3289L37.6308 22.1877L37.6573 22.0421L37.6839 21.8997L37.7072 21.7541L37.7271 21.6118L37.7471 21.4672L37.7637 21.3206L37.7847 21.1696L37.7991 21.024L37.8124 20.8784L37.8224 20.7328L37.8323 20.584L37.839 20.4384V20.2896V20.144V19.8625V19.7126L37.8323 19.5638L37.8268 19.4182L37.8202 19.2693L37.8102 19.1238L37.7958 18.9782L37.7847 18.8315L37.7681 18.6859L37.7526 18.5392L37.7327 18.3947L37.7127 18.2524L37.6895 18.1068L37.6629 17.9644L37.6363 17.8188L37.6097 17.6775L37.5765 17.5352L37.5466 17.3928L37.5133 17.2516L37.4768 17.1092L37.4402 16.9701L37.4004 16.8277L37.3616 16.6875L37.3173 16.5484L37.2741 16.4093L37.2276 16.2702L37.1777 16.1343L37.1279 15.9941L37.078 15.8582L37.0249 15.7223L36.9717 15.5864L36.9152 15.4538L36.8554 15.3222L36.7956 15.1863L36.7358 15.0537L36.6715 14.9242L36.6084 14.7916L36.5419 14.6622L36.4733 14.5317L36.4035 14.4023L36.3326 14.2761L36.2595 14.1467L36.1864 14.0237L36.1055 13.8997L36.0291 13.7735L35.9494 13.6517L35.8663 13.5287L35.7865 13.409L35.7001 13.2861L35.6171 13.1653L35.5273 13.0456L35.4409 12.9291L35.3523 12.8126L35.2582 12.6961L35.1651 12.5797L35.071 12.4664L34.9713 12.3586L34.876 12.2507L34.7764 12.1429L34.6767 12.0351L34.5737 11.9272L34.4695 11.8194L34.3588 11.7115L34.248 11.6037L34.1372 11.4958L34.0265 11.388L33.9157 11.2877L33.805 11.1874L33.6942 11.0903L33.5834 10.9933L33.4671 10.8951L33.3564 10.8045L33.2401 10.7118L33.1204 10.6201L33.0008 10.5295L32.8812 10.4422L32.7616 10.358L32.6386 10.2707L32.5146 10.1898L32.3916 10.1078L32.2664 10.027L32.1402 9.94608L32.0139 9.87166L31.8843 9.79402L31.7547 9.7196L31.6295 9.64843L31.4955 9.57725L31.3659 9.5093L31.233 9.44136L31.1001 9.37342L30.9661 9.30871L30.8309 9.24724L30.6969 9.18577L30.5618 9.12753L30.4211 9.06929L30.286 9.00998L30.1497 8.95605L30.0102 8.90429L29.8706 8.85144L29.731 8.80292L29.5882 8.75438L29.4486 8.70909L29.3057 8.66487L29.1617 8.61958L29.0188 8.58075L28.8759 8.53869L28.7297 8.49987L28.5868 8.46428L28.4406 8.42977L28.2944 8.39633L28.1493 8.36722L28.0031 8.3381L27.8569 8.30898L27.7118 8.28417L27.5623 8.26045L27.4127 8.2378L27.2665 8.21515L27.117 8.19574L26.9675 8.17956L26.8179 8.16339L26.6684 8.15045L26.5156 8.13643L26.366 8.1278L26.2121 8.12133L26.0625 8.11486L25.9097 8.10839H25.7601H25.6006L23.3411 8.10839L26.7382 11.416L23.5537 11.416L18 6.00755L18.0033 6Z" fill="black" fill-opacity="0.16"/>
<path d="M15.7118 16.6097L23.1789 24.0767C23.4323 24.3302 23.8431 24.3302 24.0965 24.0767C24.3499 23.8233 24.3499 23.4125 24.0965 23.1591L16.6295 15.692C16.3761 15.4386 15.9652 15.4386 15.7118 15.692C15.4584 15.9454 15.4584 16.3563 15.7118 16.6097Z" fill="black" fill-opacity="0.16"/>
<path d="M14.9721 20.4903L19.2965 24.8146C19.5499 25.068 19.9607 25.068 20.2141 24.8146C20.4676 24.5612 20.4676 24.1503 20.2141 23.8969L15.8898 19.5726C15.6364 19.3192 15.2255 19.3192 14.9721 19.5726C14.7187 19.826 14.7187 20.2368 14.9721 20.4903Z" fill="black" fill-opacity="0.16"/>
<path d="M19.6857 15.7767L24.01 20.1011C24.2634 20.3545 24.6743 20.3545 24.9277 20.1011C25.1811 19.8477 25.1811 19.4368 24.9277 19.1834L20.6034 14.8591C20.3499 14.6056 19.9391 14.6056 19.6857 14.8591C19.4323 15.1125 19.4323 15.5233 19.6857 15.7767Z" fill="black" fill-opacity="0.16"/>
</svg>
