<svg width="40" height="40" viewBox="0 0 40 40" fill="none" xmlns="http://www.w3.org/2000/svg">
<path d="M21.859 32.9828H14.828L14.67 32.9778H14.508L14.346 32.9718L14.187 32.9588L14.028 32.9508L13.866 32.9378L13.708 32.9228L13.549 32.9058L13.39 32.8878L13.232 32.8658L13.075 32.8428L12.917 32.8188L12.76 32.7918L12.6 32.7578L12.441 32.7268L12.288 32.6948L12.132 32.6618L11.976 32.6258L11.823 32.5868L11.666 32.5478L11.513 32.5058L11.36 32.4638L11.211 32.4188L11.058 32.3708L10.908 32.3218L10.758 32.2718L10.609 32.2178L10.459 32.1638L10.312 32.1058L10.166 32.0578L10.019 31.9978L9.872 31.9388L9.728 31.8758L9.584 31.8088L9.44 31.7378L9.3 31.6688L9.159 31.5978L9.019 31.5248L8.873 31.4578L8.734 31.3808L8.6 31.3008L8.462 31.2228L8.323 31.1418L8.187 31.0578L8.051 30.9738L7.916 30.8898L7.785 30.7998L7.653 30.7128L7.521 30.6198L7.392 30.5258L7.263 30.4328L7.133 30.3328L7.007 30.2328L6.881 30.1328L6.759 30.0328L6.636 29.9328L6.513 29.8328L6.393 29.7278L6.273 29.6228L6.153 29.5118L6.036 29.4038L5.922 29.2898L5.8 29.1798L5.69 29.0578L5.579 28.9438L5.471 28.8238L5.36 28.7068L5.255 28.5868L5.147 28.4658L5.047 28.3438L4.947 28.2208L4.847 28.0948L4.747 27.9718L4.647 27.8428L4.547 27.7168L4.447 27.5878L4.357 27.4578L4.263 27.3258L4.177 27.1948L4.087 27.0628L4.003 26.9278L3.918 26.7928L3.842 26.6578L3.764 26.5198L3.683 26.3848L3.606 26.2438L3.53 26.1058L3.458 25.9648L3.386 25.8238L3.314 25.6838L3.246 25.5398L3.179 25.3958L3.113 25.2578L3.05 25.1078L2.99 24.9648L2.931 24.8168L2.873 24.6698L2.816 24.5198L2.762 24.3728L2.708 24.2228L2.657 24.0728L2.609 23.9238L2.561 23.7708L2.516 23.6208L2.474 23.4678L2.432 23.3118L2.393 23.1578L2.354 23.0048L2.318 22.8488L2.285 22.6918L2.252 22.5378L2.222 22.3818L2.2 22.2248L2.173 22.0688L2.149 21.9098L2.121 21.7578L2.1 21.5948L2.082 21.4368L2.063 21.2778L2.049 21.1178L2.036 20.9578L2.024 20.7978L2.015 20.6388L2.009 20.4768L2 20.3148V20.1578V19.8468V19.6878L2.006 19.5258L2.015 19.3578L2.024 19.1988L2.036 19.0408L2.048 18.8788L2.063 18.7198L2.081 18.5578L2.1 18.4038L2.121 18.2448L2.143 18.0888L2.166 17.9298L2.193 17.7738L2.224 17.6168L2.254 17.4608L2.287 17.3048L2.319 17.1478L2.355 16.9918L2.391 16.8388L2.433 16.6858L2.472 16.5298L2.517 16.3768L2.562 16.2268L2.611 16.0738L2.659 15.9248L2.71 15.7748L2.764 15.6248L2.818 15.4778L2.872 15.3278L2.931 15.1808L2.989 15.0328L3.052 14.8898L3.115 14.7418L3.181 14.5978L3.247 14.4538L3.316 14.3098L3.385 14.1698L3.457 14.0288L3.532 13.8878L3.607 13.7498L3.685 13.6088L3.763 13.4738L3.844 13.3358L3.928 13.2008L4.012 13.0658L4.097 12.9308L4.183 12.7988L4.273 12.6678L4.363 12.5358L4.457 12.4058L4.557 12.2768L4.651 12.1508L4.751 12.0218L4.851 11.8988L4.951 11.7728L5.051 11.6498L5.151 11.5278L5.251 11.4068L5.359 11.2868L5.467 11.1698L5.579 11.0498L5.69 10.9358L5.804 10.8188L5.917 10.7078L6.034 10.5938L6.151 10.4858L6.272 10.3748L6.392 10.2698L6.512 10.1648L6.635 10.0648L6.758 9.96478L6.88 9.86477L7.006 9.76478L7.132 9.66477L7.262 9.56477L7.391 9.47178L7.52 9.37778L7.652 9.28477L7.784 9.19777L7.915 9.10777L8.047 9.02378L8.185 8.93977L8.32 8.85477L8.455 8.77378L8.594 8.69578L8.732 8.62078L8.873 8.54377L9.013 8.47178L9.154 8.39878L9.3 8.32977L9.44 8.25778L9.584 8.19178L9.728 8.12477L9.872 8.06178L10.019 8.00278L10.166 7.94277L10.314 7.88577L10.461 7.82778L10.611 7.77378L10.76 7.71978L10.91 7.66978L11.06 7.62078L11.213 7.57277L11.362 7.52777L11.515 7.48577L11.668 7.44378L11.825 7.40477L11.978 7.36578L12.134 7.32977L12.287 7.29677L12.443 7.26478L12.6 7.23777L12.758 7.21078L12.915 7.18377L13.073 7.15977L13.23 7.13678L13.388 7.11477L13.547 7.09678L13.706 7.07977L13.864 7.06477L14.023 7.05177L14.185 7.04377L14.344 7.03078L14.506 7.02477H14.664L14.826 7.01978H15.139L17.088 8.96877H15H14.856H14.721L14.583 8.97478L14.444 8.98077L14.309 8.98678L14.174 8.99477L14.036 9.00778L13.901 9.01978L13.766 9.03477L13.631 9.04978L13.496 9.06777L13.361 9.08877L13.229 9.10977L13.094 9.13177L12.963 9.15477L12.831 9.18178L12.699 9.20877L12.568 9.23577L12.436 9.26678L12.304 9.29877L12.173 9.33177L12.043 9.36777L11.914 9.40677L11.785 9.44277L11.655 9.48477L11.526 9.52378L11.397 9.56878L11.271 9.61378L11.141 9.65777L11.015 9.70677L10.889 9.75478L10.766 9.80478L10.64 9.85777L10.517 9.91177L10.395 9.96577L10.274 10.0228L10.152 10.0798L10.031 10.1398L9.911 10.2028L9.791 10.2658L9.67 10.3288L9.553 10.3948L9.436 10.4608L9.319 10.5298L9.206 10.6018L9.092 10.6708L8.978 10.7458L8.865 10.8208L8.753 10.8968L8.642 10.9718L8.531 11.0528L8.423 11.1308L8.311 11.2118L8.211 11.2958L8.103 11.3808L7.998 11.4668L7.893 11.5508L7.793 11.6418L7.693 11.7318L7.593 11.8218L7.493 11.9148L7.393 12.0078L7.293 12.1078L7.193 12.2078L7.093 12.3078L6.993 12.4078L6.899 12.5078L6.806 12.6078L6.716 12.7078L6.626 12.8078L6.536 12.9128L6.449 13.0128L6.365 13.1178L6.281 13.2258L6.196 13.3338L6.115 13.4418L6.034 13.5498L5.957 13.6578L5.879 13.7698L5.804 13.8808L5.728 13.9948L5.656 14.1088L5.584 14.2218L5.516 14.3388L5.447 14.4558L5.381 14.5698L5.314 14.6898L5.248 14.8068L5.188 14.9268L5.125 15.0478L5.066 15.1678L5.008 15.2908L4.951 15.4108L4.894 15.5338L4.841 15.6578L4.79 15.7798L4.739 15.9028L4.691 16.0288L4.643 16.1548L4.594 16.2808L4.549 16.4108L4.508 16.5368L4.466 16.6658L4.427 16.7948L4.387 16.9238L4.351 17.0538L4.315 17.1858L4.283 17.3148L4.25 17.4468L4.22 17.5778L4.189 17.7098L4.162 17.8418L4.139 17.9728L4.115 18.1078L4.091 18.2398L4.07 18.3748L4.052 18.5068L4.034 18.6408L4.019 18.7768L4 18.9168L3.987 19.0518L3.975 19.1868L3.966 19.3218L3.957 19.4598L3.951 19.5948V19.7328V19.8678V20.1288V20.2678L3.957 20.4058L3.962 20.5408L3.968 20.6788L3.977 20.8138L3.99 20.9488L4 21.0848L4.015 21.2198L4.029 21.3558L4.047 21.4898L4.065 21.6218L4.086 21.7568L4.11 21.8888L4.134 22.0238L4.158 22.1548L4.188 22.2868L4.215 22.4188L4.245 22.5498L4.278 22.6818L4.311 22.8108L4.347 22.9428L4.382 23.0728L4.422 23.2018L4.461 23.3308L4.503 23.4598L4.548 23.5858L4.593 23.7158L4.638 23.8418L4.686 23.9678L4.734 24.0938L4.785 24.2168L4.839 24.3388L4.893 24.4648L4.947 24.5878L5.005 24.7078L5.062 24.8308L5.122 24.9508L5.184 25.0718L5.247 25.1918L5.311 25.3088L5.377 25.4288L5.443 25.5428L5.516 25.6578L5.585 25.7748L5.657 25.8878L5.732 26.0018L5.804 26.1128L5.882 26.2268L5.957 26.3388L6.038 26.4498L6.116 26.5578L6.196 26.6658L6.281 26.7738L6.365 26.8818L6.45 26.9868L6.54 27.0868L6.626 27.1868L6.716 27.2868L6.806 27.3868L6.899 27.4868L6.993 27.5868L7.093 27.6868L7.193 27.7868L7.293 27.8868L7.393 27.9868L7.493 28.0798L7.593 28.1728L7.693 28.2628L7.793 28.3528L7.898 28.4438L7.998 28.5278L8.103 28.6138L8.211 28.6988L8.319 28.7828L8.427 28.8638L8.535 28.9418L8.646 29.0228L8.758 29.0978L8.869 29.1738L8.982 29.2488L9.096 29.3238L9.21 29.3928L9.327 29.4648L9.444 29.5338L9.557 29.5998L9.678 29.6658L9.795 29.7288L9.915 29.7918L10.035 29.8548L10.156 29.9148L10.278 29.9718L10.399 30.0288L10.521 30.0828L10.648 30.1368L10.77 30.1918L10.893 30.2418L11.019 30.2898L11.145 30.3388L11.271 30.3838L11.4 30.4288L11.526 30.4708L11.655 30.5118L11.785 30.5538L11.914 30.5898L12.043 30.6288L12.175 30.6648L12.304 30.6978L12.436 30.7298L12.568 30.7608L12.699 30.7878L12.831 30.8148L12.963 30.8418L13.094 30.8648L13.229 30.8868L13.364 30.9078L13.496 30.9288L13.631 30.9468L13.766 30.9618L13.901 30.9768L14.036 30.9888L14.174 31.0018L14.309 31.0098L14.448 31.0158L14.583 31.0218L14.721 31.0278H14.856H15H17.04L13.973 27.9608H16.848L21.862 32.9758L21.859 32.9828Z" fill="black" fill-opacity="0.88"/>
<path d="M18.141 7.01747L25.172 7.01747L25.33 7.02247H25.492L25.654 7.02847L25.813 7.04147L25.972 7.04947L26.134 7.06247L26.292 7.07747L26.451 7.09447L26.61 7.11247L26.768 7.13447L26.925 7.15747L27.083 7.18147L27.24 7.20847L27.4 7.24247L27.559 7.27347L27.712 7.30547L27.868 7.33847L28.024 7.37447L28.177 7.41347L28.334 7.45247L28.487 7.49447L28.64 7.53647L28.789 7.58147L28.942 7.62947L29.092 7.67847L29.242 7.72847L29.391 7.78247L29.541 7.83647L29.688 7.89447L29.834 7.94247L29.981 8.00247L30.128 8.06147L30.272 8.12447L30.416 8.19147L30.56 8.26247L30.7 8.33147L30.841 8.40247L30.981 8.47547L31.127 8.54247L31.266 8.61947L31.4 8.69947L31.538 8.77747L31.677 8.85847L31.813 8.94247L31.949 9.02647L32.084 9.11047L32.215 9.20047L32.347 9.28747L32.479 9.38047L32.608 9.47447L32.737 9.56747L32.867 9.66747L32.993 9.76747L33.119 9.86747L33.241 9.96747L33.364 10.0675L33.487 10.1675L33.607 10.2725L33.727 10.3775L33.847 10.4885L33.964 10.5965L34.078 10.7105L34.2 10.8205L34.31 10.9425L34.421 11.0565L34.529 11.1765L34.64 11.2935L34.745 11.4135L34.853 11.5345L34.953 11.6565L35.053 11.7795L35.153 11.9055L35.253 12.0285L35.353 12.1575L35.453 12.2835L35.553 12.4125L35.643 12.5425L35.737 12.6745L35.823 12.8055L35.913 12.9375L35.997 13.0725L36.082 13.2075L36.158 13.3425L36.236 13.4805L36.317 13.6155L36.394 13.7565L36.47 13.8945L36.542 14.0355L36.614 14.1765L36.686 14.3165L36.754 14.4605L36.821 14.6045L36.887 14.7425L36.95 14.8925L37.01 15.0355L37.069 15.1835L37.127 15.3305L37.184 15.4805L37.238 15.6275L37.292 15.7775L37.343 15.9275L37.391 16.0765L37.439 16.2295L37.484 16.3795L37.526 16.5325L37.568 16.6885L37.607 16.8425L37.646 16.9955L37.682 17.1515L37.715 17.3085L37.748 17.4625L37.778 17.6185L37.8 17.7755L37.827 17.9315L37.851 18.0905L37.879 18.2425L37.9 18.4055L37.918 18.5635L37.937 18.7225L37.951 18.8825L37.964 19.0425L37.976 19.2025L37.985 19.3615L37.991 19.5235L38 19.6855V19.8425V20.1535V20.3125L37.994 20.4745L37.985 20.6425L37.976 20.8015L37.964 20.9595L37.952 21.1215L37.937 21.2805L37.919 21.4425L37.9 21.5965L37.879 21.7555L37.857 21.9115L37.834 22.0705L37.807 22.2265L37.776 22.3835L37.746 22.5395L37.713 22.6955L37.681 22.8525L37.645 23.0085L37.609 23.1615L37.567 23.3145L37.528 23.4705L37.483 23.6235L37.438 23.7735L37.389 23.9265L37.341 24.0755L37.29 24.2255L37.236 24.3755L37.182 24.5225L37.128 24.6725L37.069 24.8195L37.011 24.9675L36.948 25.1105L36.885 25.2585L36.819 25.4025L36.753 25.5465L36.684 25.6905L36.615 25.8305L36.543 25.9715L36.468 26.1125L36.393 26.2505L36.315 26.3915L36.237 26.5265L36.156 26.6645L36.072 26.7995L35.988 26.9345L35.903 27.0695L35.817 27.2015L35.727 27.3325L35.637 27.4645L35.543 27.5945L35.443 27.7235L35.349 27.8495L35.249 27.9785L35.149 28.1015L35.049 28.2275L34.949 28.3505L34.849 28.4725L34.749 28.5935L34.641 28.7135L34.533 28.8305L34.421 28.9505L34.31 29.0645L34.196 29.1815L34.083 29.2925L33.966 29.4065L33.849 29.5145L33.728 29.6255L33.608 29.7305L33.488 29.8355L33.365 29.9355L33.242 30.0355L33.12 30.1355L32.994 30.2355L32.868 30.3355L32.738 30.4355L32.609 30.5285L32.48 30.6225L32.348 30.7155L32.216 30.8025L32.085 30.8925L31.953 30.9765L31.815 31.0605L31.68 31.1455L31.545 31.2265L31.406 31.3045L31.268 31.3795L31.127 31.4565L30.987 31.5285L30.846 31.6015L30.7 31.6705L30.56 31.7425L30.416 31.8085L30.272 31.8755L30.128 31.9385L29.981 31.9975L29.834 32.0575L29.686 32.1145L29.539 32.1725L29.389 32.2265L29.24 32.2805L29.09 32.3305L28.94 32.3795L28.787 32.4275L28.638 32.4725L28.485 32.5145L28.332 32.5565L28.175 32.5955L28.022 32.6345L27.866 32.6705L27.713 32.7035L27.557 32.7355L27.4 32.7625L27.242 32.7895L27.085 32.8165L26.927 32.8405L26.77 32.8635L26.612 32.8855L26.453 32.9035L26.294 32.9205L26.136 32.9355L25.977 32.9485L25.815 32.9565L25.656 32.9695L25.494 32.9755H25.336L25.174 32.9805H24.861L22.912 31.0315H25H25.144H25.279L25.417 31.0255L25.556 31.0195L25.691 31.0135L25.826 31.0055L25.964 30.9925L26.099 30.9805L26.234 30.9655L26.369 30.9505L26.504 30.9325L26.639 30.9115L26.771 30.8905L26.906 30.8685L27.037 30.8455L27.169 30.8185L27.301 30.7915L27.432 30.7645L27.564 30.7335L27.696 30.7015L27.827 30.6685L27.957 30.6325L28.086 30.5935L28.215 30.5575L28.345 30.5155L28.474 30.4765L28.603 30.4315L28.729 30.3865L28.859 30.3425L28.985 30.2935L29.111 30.2455L29.234 30.1955L29.36 30.1425L29.483 30.0885L29.605 30.0345L29.726 29.9775L29.848 29.9205L29.969 29.8605L30.089 29.7975L30.209 29.7345L30.33 29.6715L30.447 29.6055L30.564 29.5395L30.681 29.4705L30.794 29.3985L30.908 29.3295L31.022 29.2545L31.135 29.1795L31.247 29.1035L31.358 29.0285L31.469 28.9475L31.577 28.8695L31.689 28.7885L31.789 28.7045L31.897 28.6195L32.002 28.5335L32.107 28.4495L32.207 28.3585L32.307 28.2685L32.407 28.1785L32.507 28.0855L32.607 27.9925L32.707 27.8925L32.807 27.7925L32.907 27.6925L33.007 27.5925L33.101 27.4925L33.194 27.3925L33.284 27.2925L33.374 27.1925L33.464 27.0875L33.551 26.9875L33.635 26.8825L33.719 26.7745L33.804 26.6665L33.885 26.5585L33.966 26.4505L34.043 26.3425L34.121 26.2305L34.196 26.1195L34.272 26.0055L34.344 25.8915L34.416 25.7785L34.484 25.6615L34.553 25.5445L34.619 25.4305L34.686 25.3105L34.752 25.1935L34.812 25.0735L34.875 24.9525L34.934 24.8325L34.992 24.7095L35.049 24.5895L35.106 24.4665L35.159 24.3425L35.21 24.2205L35.261 24.0975L35.309 23.9715L35.357 23.8455L35.406 23.7195L35.451 23.5895L35.492 23.4635L35.534 23.3345L35.573 23.2055L35.613 23.0765L35.649 22.9465L35.685 22.8145L35.717 22.6855L35.75 22.5535L35.78 22.4225L35.811 22.2905L35.838 22.1585L35.861 22.0275L35.885 21.8925L35.909 21.7605L35.93 21.6255L35.948 21.4935L35.966 21.3595L35.981 21.2235L36 21.0835L36.013 20.9485L36.025 20.8135L36.034 20.6785L36.043 20.5405L36.049 20.4055V20.2675V20.1325V19.8715V19.7325L36.043 19.5945L36.038 19.4595L36.032 19.3215L36.023 19.1865L36.01 19.0515L36 18.9155L35.985 18.7805L35.971 18.6445L35.953 18.5105L35.935 18.3785L35.914 18.2435L35.89 18.1115L35.866 17.9765L35.842 17.8455L35.812 17.7135L35.785 17.5815L35.755 17.4505L35.722 17.3185L35.689 17.1895L35.653 17.0575L35.618 16.9275L35.578 16.7985L35.539 16.6695L35.497 16.5405L35.452 16.4145L35.407 16.2845L35.362 16.1585L35.314 16.0325L35.266 15.9065L35.215 15.7835L35.161 15.6615L35.107 15.5355L35.053 15.4125L34.995 15.2925L34.938 15.1695L34.878 15.0495L34.816 14.9285L34.753 14.8085L34.689 14.6915L34.623 14.5715L34.557 14.4575L34.484 14.3425L34.415 14.2255L34.343 14.1125L34.268 13.9985L34.196 13.8875L34.118 13.7735L34.043 13.6615L33.962 13.5505L33.884 13.4425L33.804 13.3345L33.719 13.2265L33.635 13.1185L33.55 13.0135L33.46 12.9135L33.374 12.8135L33.284 12.7135L33.194 12.6135L33.101 12.5135L33.007 12.4135L32.907 12.3135L32.807 12.2135L32.707 12.1135L32.607 12.0135L32.507 11.9205L32.407 11.8275L32.307 11.7375L32.207 11.6475L32.102 11.5565L32.002 11.4725L31.897 11.3865L31.789 11.3015L31.681 11.2175L31.573 11.1365L31.465 11.0585L31.354 10.9775L31.242 10.9025L31.131 10.8265L31.018 10.7515L30.904 10.6765L30.79 10.6075L30.673 10.5355L30.556 10.4665L30.443 10.4005L30.322 10.3345L30.205 10.2715L30.085 10.2085L29.965 10.1455L29.844 10.0855L29.722 10.0285L29.601 9.97147L29.479 9.91747L29.352 9.86347L29.23 9.80847L29.107 9.75847L28.981 9.71047L28.855 9.66147L28.729 9.61647L28.6 9.57147L28.474 9.52947L28.345 9.48847L28.215 9.44647L28.086 9.41047L27.957 9.37147L27.825 9.33547L27.696 9.30247L27.564 9.27047L27.432 9.23947L27.301 9.21247L27.169 9.18547L27.037 9.15847L26.906 9.13547L26.771 9.11347L26.636 9.09247L26.504 9.07147L26.369 9.05347L26.234 9.03847L26.099 9.02347L25.964 9.01147L25.826 8.99847L25.691 8.99047L25.552 8.98447L25.417 8.97847L25.279 8.97247H25.144H25L22.96 8.97247L26.027 12.0395L23.152 12.0395L18.138 7.02447L18.141 7.01747Z" fill="black" fill-opacity="0.88"/>
<path d="M16.1406 16.9487L22.861 23.6691C23.089 23.8971 23.4588 23.8971 23.6869 23.6691C23.9149 23.441 23.9149 23.0712 23.6869 22.8432L16.9665 16.1228C16.7385 15.8948 16.3687 15.8948 16.1406 16.1228C15.9126 16.3509 15.9126 16.7207 16.1406 16.9487Z" fill="black" fill-opacity="0.88"/>
<path d="M15.4749 20.4412L19.3668 24.3331C19.5949 24.5612 19.9647 24.5612 20.1927 24.3331C20.4208 24.1051 20.4208 23.7353 20.1927 23.5072L16.3008 19.6153C16.0728 19.3873 15.703 19.3873 15.4749 19.6153C15.2469 19.8434 15.2469 20.2132 15.4749 20.4412Z" fill="#035BD4"/>
<path d="M19.7171 16.199L23.609 20.091C23.8371 20.319 24.2069 20.319 24.4349 20.091C24.663 19.8629 24.663 19.4931 24.4349 19.2651L20.543 15.3731C20.3149 15.1451 19.9452 15.1451 19.7171 15.3731C19.489 15.6012 19.489 15.971 19.7171 16.199Z" fill="#035BD4"/>
</svg>
