<svg width="40" height="40" viewBox="0 0 40 40" fill="none" xmlns="http://www.w3.org/2000/svg">
<path d="M32 21.976H38L20 36L2 21.976L8 21.996V5H32V21.976ZM30 23.9V7H10V23.9H7.837L20 33.373L32.181 23.881L30 23.9Z" fill="black"/>
<path fill-rule="evenodd" clip-rule="evenodd" d="M17.155 10.002C17.2876 10.002 17.4148 10.0547 17.5085 10.1485C17.6023 10.2422 17.655 10.3694 17.655 10.502V14.174C17.655 14.3066 17.6023 14.4338 17.5085 14.5276C17.4148 14.6213 17.2876 14.674 17.155 14.674H13.501C13.3684 14.674 13.2412 14.6213 13.1474 14.5276C13.0537 14.4338 13.001 14.3066 13.001 14.174V10.502C13.001 10.3694 13.0537 10.2422 13.1474 10.1485C13.2412 10.0547 13.3684 10.002 13.501 10.002H17.155ZM16.491 11.17H14.165V13.506H16.492L16.491 11.17Z" fill="#035BD4"/>
<path fill-rule="evenodd" clip-rule="evenodd" d="M17.18 10.004H17.205H17.23H17.255L17.278 10.01L17.301 10.016L17.324 10.024L17.347 10.033L17.37 10.053L17.392 10.063L17.413 10.076L17.433 10.089L17.454 10.103L17.473 10.118L17.492 10.134L17.511 10.15L17.527 10.169L17.543 10.188L17.558 10.207L17.572 10.228L17.585 10.248L17.598 10.269L17.609 10.291L17.618 10.313L17.627 10.336L17.635 10.359L17.641 10.382L17.647 10.405V10.43V10.455V14.226V14.251V14.276L17.641 14.299L17.635 14.322L17.627 14.345L17.618 14.368L17.609 14.39L17.598 14.412L17.585 14.433L17.572 14.453L17.558 14.474L17.543 14.493L17.527 14.512L17.511 14.531L17.492 14.547L17.473 14.563L17.454 14.578L17.433 14.592L17.413 14.605L17.392 14.618L17.37 14.628L17.348 14.637L17.325 14.646L17.302 14.654L17.279 14.66L17.256 14.666H17.231H17.206H13.452H13.427H13.402L13.379 14.66L13.356 14.654L13.333 14.646L13.31 14.637L13.288 14.628L13.266 14.618L13.245 14.605L13.225 14.592L13.204 14.578L13.185 14.563L13.166 14.547L13.147 14.531L13.131 14.512L13.115 14.493L13.1 14.474L13.086 14.453L13.073 14.433L13.06 14.412L13.049 14.39L13.04 14.368L13.031 14.345L13.023 14.322L13.017 14.299L13.011 14.276V14.251V14.226V10.453V10.428V10.403L13.017 10.38L13.023 10.357L13.031 10.334L13.04 10.311L13.049 10.289L13.06 10.267L13.073 10.246L13.086 10.226L13.1 10.205L13.115 10.186L13.131 10.167L13.147 10.148L13.166 10.132L13.185 10.116L13.204 10.101L13.225 10.087L13.245 10.074L13.266 10.061L13.288 10.051L13.31 10.042L13.333 10.033L13.356 10.025L13.379 10.019L13.402 10.013H13.427H13.452H17.18V10.004ZM14.165 11.171V13.507H16.492V11.171H14.165Z" fill="#035BD4"/>
<path fill-rule="evenodd" clip-rule="evenodd" d="M17.155 19.346C17.2876 19.346 17.4148 19.3987 17.5085 19.4924C17.6023 19.5862 17.655 19.7134 17.655 19.846V23.518C17.655 23.6506 17.6023 23.7778 17.5085 23.8715C17.4148 23.9653 17.2876 24.018 17.155 24.018H13.501C13.3684 24.018 13.2412 23.9653 13.1474 23.8715C13.0537 23.7778 13.001 23.6506 13.001 23.518V19.846C13.001 19.7134 13.0537 19.5862 13.1474 19.4924C13.2412 19.3987 13.3684 19.346 13.501 19.346H17.155ZM16.491 20.514H14.165V22.85H16.492L16.491 20.514Z" fill="#035BD4"/>
<path fill-rule="evenodd" clip-rule="evenodd" d="M17.18 19.348H17.205H17.23H17.255L17.278 19.354L17.301 19.36L17.324 19.368L17.347 19.377L17.37 19.397L17.392 19.407L17.413 19.42L17.433 19.433L17.454 19.447L17.473 19.462L17.492 19.478L17.511 19.494L17.527 19.513L17.543 19.532L17.558 19.551L17.572 19.572L17.585 19.592L17.598 19.613L17.609 19.635L17.618 19.657L17.627 19.68L17.635 19.703L17.641 19.726L17.647 19.749V19.774V19.799V23.57V23.595V23.62L17.641 23.643L17.635 23.666L17.627 23.689L17.618 23.712L17.609 23.734L17.598 23.756L17.585 23.777L17.572 23.797L17.558 23.818L17.543 23.837L17.527 23.856L17.511 23.875L17.492 23.891L17.473 23.907L17.454 23.922L17.433 23.936L17.413 23.949L17.392 23.962L17.37 23.972L17.348 23.981L17.325 23.99L17.302 23.998L17.279 24.004L17.256 24.01H17.231H17.206H13.452H13.427H13.402L13.379 24.004L13.356 23.998L13.333 23.99L13.31 23.981L13.288 23.972L13.266 23.962L13.245 23.949L13.225 23.936L13.204 23.922L13.185 23.907L13.166 23.891L13.147 23.875L13.131 23.856L13.115 23.837L13.1 23.818L13.086 23.797L13.073 23.777L13.06 23.756L13.049 23.734L13.04 23.712L13.031 23.689L13.023 23.666L13.017 23.643L13.011 23.62V23.595V23.57V19.797V19.772V19.747L13.017 19.724L13.023 19.701L13.031 19.678L13.04 19.655L13.049 19.633L13.06 19.611L13.073 19.59L13.086 19.57L13.1 19.549L13.115 19.53L13.131 19.511L13.147 19.492L13.166 19.476L13.185 19.46L13.204 19.445L13.225 19.431L13.245 19.418L13.266 19.405L13.288 19.395L13.31 19.386L13.333 19.377L13.356 19.369L13.379 19.363L13.402 19.357H13.427H13.452H17.18V19.348ZM14.165 20.515V22.851H16.492V20.515H14.165Z" fill="#035BD4"/>
<path fill-rule="evenodd" clip-rule="evenodd" d="M27.002 20.515C27.0023 20.5918 26.9873 20.6678 26.9581 20.7388C26.9288 20.8098 26.8858 20.8743 26.8315 20.9286C26.7772 20.9828 26.7128 21.0258 26.6418 21.0551C26.5708 21.0843 26.4948 21.0992 26.418 21.099C26.2631 21.099 26.1146 21.0375 26.005 20.9279C25.8955 20.8184 25.834 20.6699 25.834 20.515V17.595H23.497V20.515C23.497 20.6699 23.4355 20.8184 23.3259 20.9279C23.2164 21.0375 23.0679 21.099 22.913 21.099C22.8362 21.0992 22.7602 21.0843 22.6892 21.0551C22.6182 21.0258 22.5537 20.9828 22.4994 20.9286C22.4452 20.8743 22.4022 20.8098 22.3729 20.7388C22.3436 20.6678 22.3287 20.5918 22.329 20.515V16.927C22.329 16.7944 22.3817 16.6672 22.4754 16.5734C22.5692 16.4797 22.6964 16.427 22.829 16.427H26.502C26.6346 16.427 26.7618 16.4797 26.8555 16.5734C26.9493 16.6672 27.002 16.7944 27.002 16.927V20.515Z" fill="#035BD4"/>
<path fill-rule="evenodd" clip-rule="evenodd" d="M26.526 16.432H26.551H26.576H26.601L26.624 16.438L26.647 16.445L26.67 16.452L26.693 16.461L26.715 16.47L26.737 16.48L26.758 16.493L26.778 16.506L26.799 16.52L26.818 16.535L26.837 16.551L26.856 16.567L26.872 16.586L26.888 16.605L26.903 16.624L26.917 16.645L26.93 16.665L26.943 16.686L26.953 16.708L26.962 16.73L26.971 16.753L26.979 16.776L26.985 16.799L26.991 16.822V16.847V16.872V20.567V20.596L26.985 20.624L26.979 20.652L26.971 20.679L26.963 20.707L26.952 20.733L26.94 20.76L26.927 20.785L26.913 20.811L26.898 20.834L26.882 20.857L26.864 20.88L26.845 20.902L26.825 20.923L26.804 20.943L26.782 20.962L26.76 20.98L26.735 20.996L26.712 21.011L26.686 21.025L26.661 21.038L26.634 21.05L26.608 21.06L26.58 21.068L26.553 21.076L26.525 21.082L26.497 21.088H26.469H26.38H26.351H26.322H26.293L26.265 21.081L26.237 21.074L26.21 21.065L26.183 21.055L26.157 21.043L26.132 21.03L26.107 21.016L26.082 21.001L26.06 20.985L26.038 20.967L26.017 20.948L26.002 20.932L25.983 20.911L25.964 20.89L25.946 20.868L25.93 20.846L25.915 20.821L25.901 20.796L25.888 20.771L25.876 20.745L25.865 20.718L25.856 20.691L25.849 20.663L25.842 20.635V20.606V20.577V20.548V17.597H23.497V20.548V20.577V20.606V20.635L23.49 20.663L23.483 20.691L23.474 20.718L23.463 20.745L23.451 20.771L23.438 20.796L23.424 20.821L23.409 20.846L23.393 20.868L23.375 20.89L23.356 20.911L23.337 20.932L23.316 20.951L23.295 20.97L23.273 20.988L23.251 21.004L23.226 21.019L23.201 21.033L23.176 21.046L23.15 21.058L23.123 21.068L23.096 21.077L23.068 21.084L23.04 21.091H23.011H22.982H22.953H22.864H22.836L22.808 21.085L22.78 21.079L22.753 21.071L22.725 21.063L22.699 21.053L22.672 21.041L22.647 21.028L22.621 21.014L22.598 20.999L22.573 20.983L22.551 20.965L22.529 20.946L22.508 20.926L22.488 20.905L22.469 20.883L22.451 20.86L22.435 20.837L22.42 20.814L22.406 20.788L22.393 20.763L22.381 20.736L22.37 20.71L22.362 20.682L22.354 20.655L22.348 20.627L22.342 20.599V20.57V16.875V16.85V16.825L22.348 16.802L22.354 16.779L22.362 16.756L22.371 16.733L22.38 16.711L22.391 16.689L22.404 16.668L22.417 16.648L22.431 16.627L22.446 16.608L22.462 16.589L22.478 16.57L22.497 16.554L22.516 16.538L22.535 16.523L22.556 16.509L22.576 16.496L22.597 16.483L22.619 16.473L22.641 16.464L22.664 16.455L22.687 16.448L22.71 16.441L22.733 16.435H22.758H22.783H26.53L26.526 16.432Z" fill="#035BD4"/>
<path fill-rule="evenodd" clip-rule="evenodd" d="M26.501 10.002C26.6336 10.002 26.7608 10.0547 26.8545 10.1485C26.9483 10.2422 27.001 10.3694 27.001 10.502V14.174C27.001 14.3066 26.9483 14.4338 26.8545 14.5276C26.7608 14.6213 26.6336 14.674 26.501 14.674H22.847C22.7144 14.674 22.5872 14.6213 22.4934 14.5276C22.3997 14.4338 22.347 14.3066 22.347 14.174V10.502C22.347 10.3694 22.3997 10.2422 22.4934 10.1485C22.5872 10.0547 22.7144 10.002 22.847 10.002H26.501ZM25.837 11.17H23.51V13.506H25.837V11.17Z" fill="#035BD4"/>
<path fill-rule="evenodd" clip-rule="evenodd" d="M26.526 10.004H26.551H26.576H26.601L26.624 10.01L26.647 10.016L26.67 10.024L26.693 10.033L26.715 10.042L26.737 10.052L26.758 10.065L26.778 10.078L26.799 10.092L26.818 10.107L26.837 10.123L26.856 10.139L26.872 10.158L26.888 10.177L26.903 10.196L26.917 10.217L26.93 10.237L26.943 10.258L26.954 10.28L26.963 10.302L26.972 10.325L26.98 10.348L26.986 10.371L26.992 10.394V10.419V10.444V14.215V14.24V14.265L26.986 14.288L26.98 14.311L26.972 14.334L26.963 14.357L26.954 14.379L26.943 14.401L26.93 14.422L26.917 14.442L26.903 14.463L26.888 14.482L26.872 14.501L26.856 14.52L26.837 14.536L26.818 14.552L26.799 14.567L26.778 14.581L26.758 14.594L26.737 14.607L26.715 14.617L26.693 14.626L26.67 14.635L26.647 14.643L26.624 14.649L26.601 14.655H26.576H26.551H22.798H22.773H22.748L22.725 14.649L22.702 14.643L22.679 14.635L22.656 14.626L22.634 14.617L22.612 14.607L22.591 14.594L22.571 14.581L22.55 14.567L22.531 14.552L22.512 14.536L22.493 14.52L22.477 14.501L22.461 14.482L22.446 14.463L22.432 14.442L22.419 14.422L22.406 14.401L22.395 14.379L22.386 14.357L22.377 14.334L22.369 14.311L22.363 14.288L22.357 14.265V14.24V14.215V10.453V10.428V10.403L22.363 10.38L22.369 10.357L22.377 10.334L22.386 10.311L22.395 10.289L22.406 10.267L22.419 10.246L22.432 10.226L22.446 10.205L22.461 10.186L22.477 10.167L22.493 10.148L22.512 10.132L22.531 10.116L22.55 10.101L22.571 10.087L22.591 10.074L22.612 10.061L22.634 10.051L22.656 10.042L22.679 10.033L22.702 10.025L22.725 10.019L22.748 10.013H22.773H22.798H26.526V10.004ZM23.511 11.171V13.507H25.838V11.171H23.511Z" fill="#035BD4"/>
<path fill-rule="evenodd" clip-rule="evenodd" d="M20.576 10.502C20.576 10.3694 20.5233 10.2422 20.4296 10.1485C20.3358 10.0547 20.2086 10.002 20.076 10.002H19.908C19.7754 10.002 19.6482 10.0547 19.5545 10.1485C19.4607 10.2422 19.408 10.3694 19.408 10.502V14.174C19.408 14.3066 19.4607 14.4338 19.5545 14.5276C19.6482 14.6213 19.7754 14.674 19.908 14.674H20.076C20.2086 14.674 20.3358 14.6213 20.4296 14.5276C20.5233 14.4338 20.576 14.3066 20.576 14.174V10.502Z" fill="black"/>
<path fill-rule="evenodd" clip-rule="evenodd" d="M20.076 10.002H20.125H20.15H20.174L20.198 10.008L20.222 10.015L20.245 10.022L20.268 10.031L20.29 10.053L20.312 10.063L20.333 10.076L20.354 10.089L20.374 10.103L20.393 10.118L20.412 10.134L20.43 10.15L20.447 10.169L20.463 10.188L20.478 10.207L20.492 10.228L20.505 10.248L20.517 10.269L20.528 10.291L20.538 10.313L20.547 10.336L20.555 10.359L20.562 10.382L20.567 10.405V10.43V10.455V10.48V14.202V14.227V14.252V14.277L20.562 14.3L20.555 14.323L20.547 14.346L20.538 14.369L20.528 14.391L20.517 14.413L20.505 14.434L20.492 14.454L20.478 14.475L20.463 14.494L20.447 14.513L20.43 14.532L20.412 14.548L20.393 14.564L20.374 14.579L20.354 14.593L20.333 14.606L20.312 14.619L20.29 14.629L20.268 14.638L20.245 14.647L20.222 14.654L20.198 14.661L20.174 14.667H20.15H20.125H19.858H19.833H19.809L19.785 14.661L19.761 14.654L19.738 14.647L19.715 14.638L19.693 14.629L19.671 14.619L19.65 14.606L19.629 14.593L19.609 14.579L19.59 14.564L19.571 14.548L19.553 14.532L19.536 14.513L19.52 14.494L19.505 14.475L19.49 14.453L19.477 14.433L19.465 14.412L19.454 14.39L19.444 14.368L19.435 14.345L19.427 14.322L19.42 14.299L19.415 14.276V14.251V14.226V14.201V10.479V10.454V10.429V10.404L19.42 10.381L19.427 10.358L19.435 10.335L19.444 10.312L19.454 10.29L19.465 10.268L19.477 10.247L19.49 10.227L19.504 10.206L19.519 10.187L19.535 10.168L19.552 10.149L19.57 10.133L19.589 10.117L19.608 10.102L19.628 10.088L19.649 10.075L19.67 10.062L19.69 10.053L19.712 10.044L19.735 10.035L19.758 10.028L19.782 10.021L19.806 10.015H19.83H19.855H20.073L20.076 10.002Z" fill="black"/>
<path fill-rule="evenodd" clip-rule="evenodd" d="M19.408 17.595H13.501C13.3684 17.595 13.2412 17.5423 13.1474 17.4485C13.0537 17.3548 13.001 17.2276 13.001 17.095V16.927C13.001 16.7944 13.0537 16.6672 13.1474 16.5735C13.2412 16.4797 13.3684 16.427 13.501 16.427H20.076C20.2086 16.427 20.3358 16.4797 20.4295 16.5735C20.5233 16.6672 20.576 16.7944 20.576 16.927V22.853H26.483C26.6156 22.853 26.7428 22.9057 26.8365 22.9995C26.9303 23.0932 26.983 23.2204 26.983 23.353V23.521C26.983 23.6536 26.9303 23.7808 26.8365 23.8745C26.7428 23.9683 26.6156 24.021 26.483 24.021H19.908C19.7754 24.021 19.6482 23.9683 19.5544 23.8745C19.4607 23.7808 19.408 23.6536 19.408 23.521V17.595Z" fill="black"/>
<path fill-rule="evenodd" clip-rule="evenodd" d="M20.076 16.427H20.125H20.15H20.175L20.198 16.433L20.221 16.44L20.244 16.447L20.267 16.456L20.289 16.465L20.311 16.476L20.332 16.489L20.352 16.502L20.373 16.516L20.392 16.531L20.411 16.547L20.43 16.563L20.446 16.582L20.462 16.601L20.477 16.62L20.491 16.641L20.504 16.661L20.517 16.682L20.528 16.704L20.537 16.726L20.546 16.749L20.554 16.772L20.56 16.795L20.566 16.818V16.843V16.868V22.853H26.522H26.547H26.572L26.595 22.859L26.618 22.866L26.641 22.873L26.664 22.882L26.686 22.891L26.708 22.902L26.729 22.915L26.749 22.928L26.77 22.942L26.789 22.957L26.808 22.973L26.827 22.989L26.843 23.008L26.859 23.027L26.874 23.046L26.888 23.067L26.901 23.087L26.914 23.108L26.925 23.13L26.934 23.152L26.943 23.175L26.951 23.198L26.957 23.221L26.963 23.244V23.269V23.294V23.56V23.585V23.609L26.957 23.632L26.951 23.655L26.943 23.678L26.934 23.701L26.925 23.723L26.914 23.745L26.901 23.766L26.888 23.786L26.874 23.807L26.859 23.826L26.843 23.845L26.827 23.864L26.808 23.88L26.789 23.896L26.77 23.911L26.749 23.925L26.729 23.938L26.708 23.951L26.686 23.961L26.664 23.97L26.641 23.979L26.618 23.986L26.595 23.993L26.572 23.999H26.547H26.522H19.858H19.833H19.808L19.785 23.993L19.762 23.986L19.739 23.979L19.716 23.97L19.694 23.961L19.672 23.951L19.651 23.938L19.631 23.925L19.61 23.911L19.591 23.896L19.572 23.88L19.553 23.864L19.537 23.845L19.521 23.826L19.506 23.807L19.492 23.786L19.479 23.766L19.47 23.753L19.459 23.731L19.45 23.709L19.441 23.686L19.433 23.663L19.427 23.64L19.421 23.617V23.593V23.568V17.594H13.452H13.427H13.402L13.379 17.588L13.356 17.581L13.333 17.574L13.31 17.565L13.288 17.556L13.266 17.546L13.245 17.533L13.225 17.52L13.204 17.506L13.185 17.491L13.166 17.475L13.147 17.459L13.131 17.44L13.115 17.421L13.1 17.402L13.086 17.381L13.073 17.361L13.06 17.34L13.049 17.318L13.04 17.296L13.031 17.273L13.023 17.25L13.017 17.227L13.011 17.204V17.179V17.154V16.888V16.863V16.838L13.017 16.815L13.023 16.792L13.031 16.769L13.04 16.746L13.049 16.724L13.06 16.702L13.073 16.681L13.086 16.661L13.1 16.64L13.115 16.621L13.131 16.602L13.147 16.583L13.166 16.567L13.185 16.551L13.204 16.536L13.225 16.522L13.245 16.509L13.266 16.496L13.288 16.485L13.31 16.476L13.333 16.467L13.356 16.46L13.379 16.453L13.402 16.447H13.427H13.452H20.076V16.427Z" fill="black"/>
</svg>
