<svg width="54" height="54" viewBox="0 0 54 54" fill="none" xmlns="http://www.w3.org/2000/svg">
<rect width="54" height="54" rx="4" fill="black" fill-opacity="0.04"/>
<rect x="0.5" y="0.5" width="53" height="53" rx="3.5" stroke="black" stroke-opacity="0.04"/>
<path opacity="0.4" d="M30.7358 33.2411C33.6853 34.2326 36.703 35.0211 39.7665 35.6009C36.9493 36.8809 34.2279 38.3508 31.6222 40C25.4917 38.844 19.5594 36.8554 14 34.0928C16.6111 32.4431 19.3379 30.9732 22.1606 29.6936C19.3862 28.3152 16.7141 26.7506 14.1638 25.0114C16.9916 23.73 19.9088 22.6434 22.8936 21.7594C20.3367 20.0159 17.908 18.1016 15.6251 16.0304C18.6096 15.1466 21.6545 14.4682 24.7371 14C29.3024 18.141 34.4393 21.6443 40 24.409C36.9166 24.8773 33.871 25.5558 30.8857 26.4394C33.6522 27.8157 36.5145 29.0023 39.4517 29.9903C36.4715 30.8739 33.559 31.9602 30.7358 33.2411Z" fill="#E0E0E0"/>
<path opacity="0.4" d="M40 24.0417C36.9642 24.4934 33.9655 25.1478 31.0263 26C25.5518 23.3324 20.4945 19.9527 16 15.9583C18.9384 15.1059 21.9363 14.4515 24.9714 14C29.4662 17.994 34.524 21.3729 39.9988 24.0395L40 24.0417Z" fill="#E6E6E6"/>
<path opacity="0.4" d="M38.9965 30.3169C36.0513 31.3184 33.1731 32.5491 30.3834 34C27.4759 32.8828 24.643 31.539 21.9057 29.9786C19.163 28.4189 16.5213 26.6486 14 24.6806C16.7956 23.2303 19.6795 22.0004 22.6304 21C27.6704 24.9378 33.1801 28.0745 39 30.3195L38.9965 30.3169Z" fill="#D9D9D9"/>
<path opacity="0.4" d="M40 35.7317C37.1573 36.9736 34.4111 38.3998 31.7819 40C25.5958 38.8782 19.6098 36.9487 14 34.2684C16.6348 32.6678 19.3863 31.2416 22.2345 30C27.839 32.6805 33.8194 34.6117 40 35.7371V35.7317Z" fill="#C3C3C3"/>
</svg>
