<svg width="24" height="24" viewBox="0 0 24 24" fill="none" xmlns="http://www.w3.org/2000/svg">
<path d="M18.4273 19.2434L14.6684 15.4834C13.5663 16.3996 12.1785 16.9006 10.7454 16.8994C9.1133 16.8976 7.54852 16.2485 6.39437 15.0946C5.24021 13.9406 4.59068 12.3761 4.58856 10.744C4.59038 9.11173 5.23962 7.5469 6.39381 6.39272C7.548 5.23853 9.1131 4.58929 10.7454 4.58747C12.3776 4.58929 13.9422 5.23853 15.0964 6.39272C16.2506 7.5469 16.8998 9.11173 16.9016 10.744C16.9026 12.1771 16.4019 13.5653 15.4859 14.6674L19.2459 18.4263C19.3539 18.5349 19.4145 18.6817 19.4145 18.8348C19.4145 18.9879 19.3539 19.1349 19.2459 19.2434C19.1373 19.3518 18.9897 19.4125 18.8363 19.4125C18.7603 19.413 18.685 19.3983 18.6148 19.3693C18.5445 19.3402 18.4808 19.2974 18.4273 19.2434ZM5.74146 10.744C5.74298 12.0699 6.27041 13.3412 7.20798 14.2787C8.14555 15.2163 9.41666 15.7436 10.7426 15.7451C12.0685 15.7436 13.3402 15.2163 14.2777 14.2787C15.2153 13.3412 15.7427 12.0699 15.7443 10.744C15.7427 9.41808 15.2153 8.14697 14.2777 7.2094C13.3402 6.27183 12.0685 5.7444 10.7426 5.74288C9.41705 5.745 8.14673 6.2726 7.20966 7.2101C6.27258 8.1476 5.74576 9.41847 5.74425 10.744H5.74146Z" fill="rgba(0, 0, 0, 0.16)"/>
</svg>
