<svg width="40" height="40" viewBox="0 0 40 40" fill="none" xmlns="http://www.w3.org/2000/svg">
<path fill-rule="evenodd" clip-rule="evenodd" d="M23.121 12.5L26.776 16.155C26.8461 16.2249 26.8939 16.3141 26.9132 16.4112C26.9326 16.5083 26.9227 16.609 26.8848 16.7005C26.8468 16.7919 26.7826 16.8701 26.7002 16.925C26.6178 16.9799 26.521 17.0092 26.422 17.009H10.122C10.0236 17.009 9.92622 16.9896 9.83534 16.952C9.74447 16.9144 9.66191 16.8592 9.59236 16.7896C9.52281 16.7201 9.46763 16.6375 9.42999 16.5466C9.39235 16.4558 9.37299 16.3584 9.37299 16.26C9.37299 16.0611 9.452 15.8703 9.59265 15.7297C9.7333 15.589 9.92407 15.51 10.123 15.51H24.008L21 12.5H23.121Z" fill="#035BD4"/>
<path fill-rule="evenodd" clip-rule="evenodd" d="M23.121 23.5L26.776 19.845C26.8459 19.775 26.8934 19.6859 26.9126 19.5889C26.9319 19.4919 26.9219 19.3913 26.884 19.3C26.8462 19.2086 26.7821 19.1304 26.6999 19.0754C26.6176 19.0204 26.5209 18.991 26.422 18.991H10.122C10.0235 18.991 9.92601 19.0105 9.83507 19.0482C9.74412 19.086 9.66152 19.1413 9.59198 19.211C9.4519 19.3514 9.37316 19.5416 9.37299 19.74C9.37299 19.9389 9.452 20.1297 9.59265 20.2703C9.7333 20.411 9.92407 20.49 10.123 20.49H24.008L21 23.5H23.121Z" fill="#035BD4"/>
<path fill-rule="evenodd" clip-rule="evenodd" d="M18 2C21.1645 2 24.2579 2.93837 26.8891 4.69647C29.5203 6.45457 31.5711 8.95346 32.7821 11.8771C33.9931 14.8007 34.3099 18.0178 33.6926 21.1215C33.0752 24.2252 31.5513 27.0761 29.3137 29.3137C27.0761 31.5514 24.2251 33.0752 21.1214 33.6926C18.0177 34.3099 14.8007 33.9931 11.8771 32.7821C8.95344 31.5711 6.45459 29.5203 4.69649 26.8891C2.93838 24.2579 2 21.1645 2 18C2.00186 13.7571 3.68816 9.68853 6.68834 6.68835C9.68852 3.68817 13.7571 2.00186 18 2ZM18 4C20.7689 4 23.4757 4.8211 25.778 6.35944C28.0803 7.89778 29.8747 10.0843 30.9343 12.6424C31.9939 15.2006 32.2712 18.0155 31.731 20.7313C31.1908 23.447 29.8574 25.9416 27.8995 27.8995C25.9416 29.8574 23.447 31.1908 20.7313 31.731C18.0155 32.2712 15.2006 31.994 12.6424 30.9343C10.0843 29.8747 7.89777 28.0803 6.35943 25.778C4.82109 23.4757 4 20.7689 4 18C4.00159 14.2875 5.4771 10.7274 8.10226 8.10226C10.7274 5.4771 14.2875 4.00159 18 4Z" fill="black"/>
</svg>
