<svg width="40" height="40" viewBox="0 0 40 40" fill="none" xmlns="http://www.w3.org/2000/svg">
<path d="M5 34V19L9 12.944H11V5.67004H29V12.944H31L35 19V34H5ZM33.049 32.05V20.95H25.949V26.95H14.066L14.015 20.95H6.95V32.05H33.049ZM12.8 19H15.948L16 25H24V19H27.186V7.46104H12.8V19ZM29 19H32.661L29.95 14.894H29V19ZM11 19V14.894H10.049L7.337 19H11Z" fill="black"/>
<path d="M21.5167 12.5422L23.1098 10.9491C23.3379 10.721 23.3379 10.3512 23.1098 10.1232C22.8818 9.89509 22.512 9.89509 22.2839 10.1232L20.6908 11.7163C20.4627 11.9443 20.4627 12.3141 20.6908 12.5422C20.9189 12.7702 21.2887 12.7702 21.5167 12.5422Z" fill="#035BD4"/>
<path d="M17.6984 10.2285L23.0045 15.5346C23.2325 15.7627 23.2325 16.1325 23.0045 16.3605C22.7764 16.5886 22.4066 16.5886 22.1786 16.3605L19.9385 14.1204L17.6984 16.3605C17.4703 16.5886 17.1005 16.5886 16.8725 16.3605C16.6444 16.1325 16.6444 15.7627 16.8725 15.5346L19.1126 13.2945L16.8725 11.0544C16.6444 10.8263 16.6444 10.4566 16.8725 10.2285C17.1005 10.0004 17.4703 10.0004 17.6984 10.2285Z" fill="black"/>
</svg>
