<svg width="40" height="40" viewBox="0 0 40 40" fill="none" xmlns="http://www.w3.org/2000/svg">
<path fill-rule="evenodd" clip-rule="evenodd" d="M32 22.0703V5H8V34H21.7546C23.2207 35.8289 25.4736 37 28 37C32.4183 37 36 33.4183 36 29C36 26.0389 34.3912 23.4535 32 22.0703ZM30.2 6.8H9.8V32.2H20.6657C20.2375 31.2201 20 30.1378 20 29C20 24.5817 23.5817 21 28 21C28.763 21 29.501 21.1068 30.2 21.3063V6.8ZM34.2 29C34.2 32.4242 31.4242 35.2 28 35.2C24.5758 35.2 21.8 32.4242 21.8 29C21.8 25.5758 24.5758 22.8 28 22.8C31.4242 22.8 34.2 25.5758 34.2 29Z" fill="black"/>
<path d="M14 14.4C13.6686 14.4 13.4 14.6686 13.4 15C13.4 15.3314 13.6686 15.6 14 15.6V14.4ZM26 15.6C26.3314 15.6 26.6 15.3314 26.6 15C26.6 14.6686 26.3314 14.4 26 14.4V15.6ZM14 15.6H26V14.4H14V15.6Z" fill="black"/>
<path d="M14 10.4C13.6686 10.4 13.4 10.6686 13.4 11C13.4 11.3314 13.6686 11.6 14 11.6V10.4ZM26 11.6C26.3314 11.6 26.6 11.3314 26.6 11C26.6 10.6686 26.3314 10.4 26 10.4V11.6ZM14 11.6H26V10.4H14V11.6Z" fill="black"/>
<path d="M28.6 25C28.6 24.6686 28.3314 24.4 28 24.4C27.6686 24.4 27.4 24.6686 27.4 25H28.6ZM28 29H27.4C27.4 29.3314 27.6686 29.6 28 29.6V29ZM31.5 29.6C31.8314 29.6 32.1 29.3314 32.1 29C32.1 28.6686 31.8314 28.4 31.5 28.4V29.6ZM27.4 25V29H28.6V25H27.4ZM28 29.6H31.5V28.4H28V29.6Z" fill="#035BD4"/>
<path d="M14 18.4C13.6686 18.4 13.4 18.6686 13.4 19C13.4 19.3314 13.6686 19.6 14 19.6V18.4ZM20 19.6C20.3314 19.6 20.6 19.3314 20.6 19C20.6 18.6686 20.3314 18.4 20 18.4V19.6ZM14 19.6H20V18.4H14V19.6Z" fill="#035BD4"/>
</svg>
