<svg width="40" height="40" viewBox="0 0 40 40" fill="none" xmlns="http://www.w3.org/2000/svg">
<path d="M5 34V19L9 12.944H11V5.67001H29V12.944H31L35 19V34H5ZM33.049 32.05V20.95H25.949V26.95H14.066L14.015 20.95H6.95V32.05H33.049ZM12.8 19H15.948L16 25H24V19H27.186V7.46101H12.8V19ZM29 19H32.661L29.95 14.894H29V19ZM11 19V14.894H10.049L7.337 19H11Z" fill="black"/>
<path d="M23.74 12.741H16.236C15.9134 12.741 15.652 13.0025 15.652 13.325C15.652 13.6475 15.9134 13.909 16.236 13.909H23.74C24.0625 13.909 24.324 13.6475 24.324 13.325C24.324 13.0025 24.0625 12.741 23.74 12.741Z" fill="black"/>
<path d="M23.74 9.79901H16.236C15.9134 9.79901 15.652 10.0605 15.652 10.383C15.652 10.7055 15.9134 10.967 16.236 10.967H23.74C24.0625 10.967 24.324 10.7055 24.324 10.383C24.324 10.0605 24.0625 9.79901 23.74 9.79901Z" fill="#035BD4"/>
<path d="M20.74 15.741H16.236C15.9134 15.741 15.652 16.0025 15.652 16.325C15.652 16.6475 15.9134 16.909 16.236 16.909H20.74C21.0625 16.909 21.324 16.6475 21.324 16.325C21.324 16.0025 21.0625 15.741 20.74 15.741Z" fill="#035BD4"/>
</svg>
